<?xml version="1.0" standalone="no"?>

<svg version="1.0" xmlns="http://www.w3.org/2000/svg"
 width="700.000000pt" height="700.000000pt" viewBox="0 0 700.000000 700.000000"
 preserveAspectRatio="xMidYMid meet">

<g transform="translate(0.000000,700.000000) scale(0.100000,-0.100000)"
fill="#000000" stroke="none">
<path d="M1887 5833 c-1 -1 -167 -3 -369 -4 -442 -3 -498 -8 -596 -54 -58 -27
-93 -54 -166 -127 -85 -85 -96 -100 -125 -176 -21 -56 -34 -108 -37 -155 -2
-40 -6 -399 -8 -799 l-4 -728 577 0 c750 0 1227 -7 1274 -19 40 -10 57 -21 95
-60 36 -36 60 -78 188 -326 163 -318 188 -363 198 -365 13 -3 21 12 331 626
276 545 502 990 566 1113 68 130 147 181 279 181 97 0 181 -44 231 -120 20
-30 147 -273 282 -540 l245 -485 776 1 c427 1 780 4 784 8 4 4 6 357 6 785
l-2 777 -32 77 c-38 92 -73 145 -137 211 -76 77 -190 143 -280 161 -58 12
-629 16 -2326 18 -962 1 -1749 1 -1750 0z"/>
<path d="M4068 3974 c-81 -157 -419 -826 -592 -1169 -357 -711 -349 -697 -455
-737 -47 -17 -134 -23 -188 -12 -37 7 -121 70 -142 106 -54 90 -77 134 -176
328 -59 118 -165 327 -235 465 l-126 249 -786 4 -785 3 3 -658 c3 -997 0 -915
36 -1003 80 -196 247 -333 448 -369 75 -13 4770 -13 4865 0 108 15 203 67 301
164 62 61 90 98 117 155 59 121 58 103 61 993 l3 717 -766 0 c-1007 1 -1036 2
-1104 33 -93 42 -95 46 -390 622 -76 148 -72 143 -89 109z"/>
</g>
</svg>
