<?xml version="1.0" standalone="no"?>
<svg version="1.0" xmlns="http://www.w3.org/2000/svg"
 width="700.000000pt" height="700.000000pt" viewBox="0 0 700.000000 700.000000"
 preserveAspectRatio="xMidYMid meet">
<g transform="translate(0.000000,700.000000) scale(0.100000,-0.100000)"
fill="#000000" stroke="none">
<path d="M1350 5829 c-320 -6 -335 -8 -441 -58 -52 -25 -130 -88 -180 -147
-19 -21 -37 -41 -40 -44 -29 -23 -85 -160 -94 -231 -4 -29 -8 -393 -10 -806
l-2 -753 821 -1 c996 -1 1023 -2 1076 -36 70 -46 85 -70 271 -436 87 -172 162
-312 166 -312 4 1 150 284 324 630 654 1300 611 1221 679 1262 54 32 108 46
173 45 66 -1 98 -11 168 -54 53 -32 42 -12 375 -673 l211 -420 782 0 c512 0
782 3 784 10 2 6 2 359 1 785 l-2 775 -30 76 c-36 94 -77 154 -156 231 -75 73
-192 134 -286 147 -36 5 -258 10 -495 11 -995 5 -3814 5 -4095 -1z"/>
<path d="M4076 3992 c-9 -15 -342 -675 -655 -1299 -298 -593 -295 -589 -402
-627 -60 -22 -134 -24 -197 -7 -46 13 -132 83 -132 107 0 8 -4 14 -8 14 -9 0
-106 185 -357 685 l-171 340 -785 2 -786 3 2 -793 c1 -537 5 -799 13 -812 5
-11 19 -44 30 -72 26 -67 69 -129 134 -194 51 -52 136 -111 173 -122 11 -3 38
-12 61 -21 23 -8 81 -18 130 -21 93 -6 4489 -7 4699 -1 66 2 140 9 165 16 136
37 285 157 352 285 73 141 70 100 73 962 l2 773 -766 0 c-1068 1 -1048 0
-1118 36 -76 39 -105 83 -288 446 -81 161 -151 297 -155 301 -4 5 -11 4 -14
-1z"/>
</g>
</svg>
